<svg width="150" height="150" viewBox="0 0 150 150" fill="none" xmlns="http://www.w3.org/2000/svg">
<g clip-path="url(#clip0_2_136)">
<path d="M86.3202 61.9788H62.6454C62.2773 61.9788 61.9789 62.2772 61.9789 62.6453V86.3201C61.9789 86.6882 62.2773 86.9866 62.6454 86.9866H86.3202C86.6883 86.9866 86.9867 86.6882 86.9867 86.3201V62.6453C86.9867 62.2772 86.6883 61.9788 86.3202 61.9788Z" stroke="white" stroke-width="14" stroke-miterlimit="10"/>
<path d="M86.9868 86.9899V104.185C86.9868 104.334 87.046 104.477 87.1515 104.583C87.2571 104.688 87.4003 104.748 87.5496 104.748H147.236C147.385 104.747 147.527 104.687 147.632 104.582C147.737 104.476 147.796 104.334 147.796 104.185V44.784C147.796 44.6353 147.737 44.4926 147.632 44.3871C147.527 44.2817 147.385 44.222 147.236 44.2212H87.5496C87.4003 44.2212 87.2571 44.2805 87.1515 44.3861C87.046 44.4916 86.9868 44.6347 86.9868 44.784V61.9788" stroke="white" stroke-width="14" stroke-miterlimit="10"/>
<path d="M86.9868 61.9789H104.185C104.333 61.9789 104.476 61.9201 104.58 61.8151C104.685 61.7102 104.744 61.5678 104.744 61.4193V2.76373C104.744 2.61501 104.685 2.47233 104.581 2.36688C104.476 2.26143 104.333 2.20176 104.185 2.20093H44.7808C44.6321 2.20176 44.4898 2.26143 44.3849 2.36688C44.28 2.47233 44.2213 2.61501 44.2213 2.76373V61.4193C44.2213 61.5678 44.2801 61.7102 44.3851 61.8151C44.49 61.9201 44.6324 61.9789 44.7808 61.9789H61.9789" stroke="white" stroke-width="14" stroke-miterlimit="10"/>
<path d="M61.9789 86.99H44.7808C44.6324 86.99 44.49 87.049 44.3851 87.1539C44.2801 87.2589 44.2213 87.4011 44.2213 87.5496V147.237C44.2213 147.385 44.28 147.528 44.3849 147.633C44.4898 147.739 44.6321 147.798 44.7808 147.799H104.185C104.333 147.798 104.476 147.739 104.581 147.633C104.685 147.528 104.744 147.385 104.744 147.237V87.5496C104.744 87.4011 104.685 87.2589 104.58 87.1539C104.476 87.049 104.333 86.99 104.185 86.99H86.9868" stroke="white" stroke-width="14" stroke-miterlimit="10"/>
<path d="M61.9789 61.9788V44.784C61.9789 44.6347 61.9196 44.4916 61.814 44.3861C61.7085 44.2805 61.5654 44.2212 61.4161 44.2212H2.7542C2.60549 44.222 2.46314 44.2817 2.35828 44.3871C2.25341 44.4926 2.19462 44.6353 2.19463 44.784V104.185C2.19462 104.334 2.25341 104.476 2.35828 104.582C2.46314 104.687 2.60549 104.747 2.7542 104.748H61.4098C61.5591 104.748 61.7022 104.688 61.8077 104.583C61.9133 104.477 61.9726 104.334 61.9726 104.185V86.9899" stroke="white" stroke-width="14" stroke-miterlimit="10"/>
<path d="M62.3782 44.6238L104.348 86.5937C104.454 86.6984 104.597 86.7571 104.746 86.7571C104.895 86.7571 105.038 86.6984 105.144 86.5937L147.381 44.6238C147.434 44.5712 147.476 44.5086 147.504 44.4398C147.533 44.371 147.547 44.2974 147.547 44.2229C147.547 44.1484 147.533 44.0746 147.504 44.0058C147.476 43.937 147.434 43.8745 147.381 43.8219L105.128 2.58452C105.022 2.4827 104.882 2.42578 104.735 2.42578C104.588 2.42578 104.447 2.4827 104.342 2.58452L62.3719 43.8219C62.3192 43.8747 62.2774 43.9376 62.2491 44.0066C62.2208 44.0757 62.2066 44.1495 62.2072 44.2241C62.2078 44.2987 62.2233 44.3725 62.2526 44.4411C62.282 44.5097 62.3247 44.5718 62.3782 44.6238Z" stroke="white" stroke-width="14" stroke-miterlimit="10"/>
<path d="M44.6206 86.5874L86.5875 44.6237C86.6931 44.5176 86.7523 44.3741 86.7523 44.2244C86.7523 44.0747 86.6931 43.9311 86.5875 43.8251L44.6206 2.59076C44.5148 2.48707 44.3725 2.42896 44.2243 2.42896C44.0762 2.42896 43.934 2.48707 43.8282 2.59076L2.597 43.8251C2.49255 43.9305 2.43396 44.0728 2.43396 44.2212C2.43396 44.3695 2.49255 44.512 2.597 44.6174L43.8282 86.5811C43.9328 86.6864 44.0747 86.7462 44.2231 86.7473C44.3715 86.7485 44.5143 86.691 44.6206 86.5874V86.5874Z" stroke="white" stroke-width="14" stroke-miterlimit="10"/>
<path d="M2.58441 105.141L43.822 147.39C43.8741 147.444 43.9364 147.487 44.0053 147.516C44.0741 147.545 44.1481 147.56 44.2228 147.56C44.2975 147.56 44.3715 147.545 44.4403 147.516C44.5092 147.487 44.5715 147.444 44.6236 147.39L86.5938 105.141C86.6459 105.089 86.6872 105.027 86.7154 104.959C86.7436 104.891 86.7581 104.818 86.7581 104.744C86.7581 104.671 86.7436 104.598 86.7154 104.53C86.6872 104.462 86.6459 104.4 86.5938 104.348L44.6236 62.3782C44.5716 62.3251 44.5094 62.2831 44.4408 62.2543C44.3722 62.2255 44.2987 62.2107 44.2243 62.2107C44.15 62.2107 44.0764 62.2255 44.0079 62.2543C43.9393 62.2831 43.8771 62.3251 43.825 62.3782L2.58763 104.348C2.48277 104.453 2.4235 104.595 2.42291 104.744C2.42232 104.892 2.48038 105.035 2.58441 105.141Z" stroke="white" stroke-width="14" stroke-miterlimit="10"/>
<path d="M104.348 62.3752L62.375 104.351C62.3229 104.403 62.2816 104.465 62.2534 104.533C62.2252 104.601 62.2107 104.674 62.2107 104.748C62.2107 104.821 62.2252 104.894 62.2534 104.962C62.2816 105.03 62.3229 105.092 62.375 105.144L104.351 147.4C104.457 147.505 104.6 147.565 104.749 147.565C104.898 147.565 105.041 147.505 105.147 147.4L147.403 105.147C147.509 105.041 147.568 104.897 147.568 104.748C147.568 104.598 147.509 104.454 147.403 104.348L105.15 62.3752C105.097 62.3224 105.035 62.2804 104.966 62.2519C104.897 62.2233 104.824 62.2087 104.749 62.2087C104.675 62.2087 104.601 62.2233 104.532 62.2519C104.463 62.2804 104.401 62.3224 104.348 62.3752V62.3752Z" stroke="white" stroke-width="14" stroke-miterlimit="10"/>
</g>
<defs>
<clipPath id="clip0_2_136">
<rect width="150" height="150" fill="white"/>
</clipPath>
</defs>
</svg>
